<svg xmlns="http://www.w3.org/2000/svg" width="146" height="65" viewBox="0 0 146 65"><defs><filter id="y7era" width="216%" height="216%" x="-48%" y="-48%" filterUnits="objectBoundingBox"><feGaussianBlur in="SourceGraphic" result="FeGaussianBlur1045Out" stdDeviation="5 5"/></filter></defs><g><g><path fill="#1e284a" d="M114.183 59.485c-14.876 0-26.98-12.104-26.98-26.98 0-14.877 12.104-26.98 26.98-26.98 14.877 0 26.98 12.103 26.98 26.98 0 14.876-12.103 26.98-26.98 26.98zm-82.112 0c-14.877 0-26.98-12.104-26.98-26.98 0-14.877 12.103-26.98 26.98-26.98 14.876 0 26.98 12.103 26.98 26.98 0 14.876-12.104 26.98-26.98 26.98zM114.183.833c-14.304 0-26.41 9.537-30.327 22.581-2.586-3.045-6.43-4.985-10.729-4.985-4.298 0-8.145 1.94-10.729 4.985C58.48 10.37 46.375.833 32.071.833 14.607.833.399 15.04.399 32.505S14.607 64.177 32.07 64.177 63.743 49.97 63.743 32.505c0-5.176 4.209-9.384 9.384-9.384 5.173 0 9.384 4.209 9.384 9.384 0 17.464 14.208 31.672 31.672 31.672 17.465 0 31.673-14.208 31.673-31.672S131.648.833 114.183.833z"/></g><g><path fill="#e63284" d="M19.065 32.5c0-7.18 5.82-13 13-13s13 5.82 13 13-5.82 13-13 13-13-5.82-13-13z"/></g><g filter="url(#y7era)"><path fill="#e63284" d="M100.065 32.5c0-7.18 5.82-13 13-13s13 5.82 13 13-5.82 13-13 13-13-5.82-13-13z"/></g></g></svg>