<svg xmlns="http://www.w3.org/2000/svg" width="108" height="91" viewBox="0 0 108 91"><g><g><path fill="#e63284" d="M47.219 58.32a7 7 0 1 1 14 0 7 7 0 0 1-14 0z"/></g><g><path fill="#1e284a" d="M61.505 83.33a10.552 10.552 0 0 1-7.51 3.11 10.55 10.55 0 0 1-7.51-3.11l-4.594-4.594v-.845c0-6.665 5.422-12.087 12.087-12.087s12.087 5.422 12.087 12.087v.878zm-38.86-28.652H33.61a14.056 14.056 0 0 1 12.99 8.685c-4.411 2.25-7.668 6.447-8.628 11.454L18.468 55.313a14.124 14.124 0 0 1 4.177-.635zM20.77 38.902c0-4.057 3.3-7.358 7.358-7.358 4.056 0 7.357 3.3 7.357 7.358v4.206c0 4.057-3.3 7.357-7.357 7.357s-7.358-3.3-7.358-7.357zm33.25 12.18a5.26 5.26 0 0 1 5.254 5.254 5.26 5.26 0 0 1-5.254 5.255 5.26 5.26 0 0 1-5.254-5.255 5.26 5.26 0 0 1 5.254-5.254zm20.41 3.596h10.965c1.406 0 2.804.214 4.138.623L69.99 74.845c-.948-4.993-4.18-9.184-8.564-11.447a14.085 14.085 0 0 1 13.006-8.72zm-1.875-15.776c0-4.057 3.3-7.358 7.358-7.358 4.057 0 7.357 3.301 7.357 7.358v4.206c0 4.057-3.3 7.357-7.357 7.357s-7.358-3.3-7.358-7.357zm32.447-21.45a2.107 2.107 0 0 0-3.803 1.814c4.706 9.87 2.67 21.699-5.066 29.435l-3.331 3.332a18.299 18.299 0 0 0-4.211-1.284 11.52 11.52 0 0 0 2.892-7.641v-4.206c0-6.38-5.19-11.571-11.57-11.571s-11.57 5.19-11.57 11.57v4.207a11.52 11.52 0 0 0 2.893 7.642 18.311 18.311 0 0 0-7.975 3.535c-.94-4.237-4.725-7.416-9.24-7.416-4.513 0-8.296 3.174-9.24 7.407a18.267 18.267 0 0 0-7.976-3.527 11.52 11.52 0 0 0 2.893-7.642v-4.206c0-6.38-5.19-11.57-11.57-11.57s-11.57 5.19-11.57 11.57v4.206a11.52 11.52 0 0 0 2.892 7.641c-1.464.26-2.892.696-4.247 1.3L11.856 48.7c-4.887-4.886-7.578-11.384-7.578-18.294s2.69-13.408 7.578-18.295c4.886-4.886 11.383-7.578 18.294-7.578 6.911 0 13.408 2.692 18.295 7.578l4.06 4.06a2.107 2.107 0 0 0 2.98 0l4.06-4.06C67.28 4.375 79.11 2.34 88.98 7.046a2.107 2.107 0 0 0 1.814-3.802C79.316-2.23 65.56.136 56.565 9.132l-2.57 2.57-2.57-2.57C45.741 3.45 38.186.32 30.15.32 22.114.32 14.56 3.45 8.877 9.132c-11.73 11.73-11.73 30.817 0 42.548l34.628 34.628a14.737 14.737 0 0 0 10.49 4.345c3.962 0 7.687-1.543 10.49-4.345L99.112 51.68c8.995-8.995 11.362-22.75 5.889-34.228z"/></g></g></svg>