<svg xmlns="http://www.w3.org/2000/svg" width="40" height="41" viewBox="0 0 40 41"><g><g><path fill="#c4c4c4" d="M20 .518c11.046 0 20 8.954 20 20 0 11.045-8.954 20-20 20s-20-8.955-20-20c0-11.046 8.954-20 20-20z"/></g><g><path fill="#fff" d="M17.582 17.647v-2.251c0-3.328 1.55-4.878 4.88-4.878h3.003v3.75h-1.878c-1.428 0-1.497.543-1.497 1.502l-.006 1.876h3.402l-.398 3.75h-3.004v10.88h-4.502v-10.88h-2.249v-3.749zm16.56 17.012A19.869 19.869 0 0 0 40 20.517c0-5.342-2.08-10.364-5.858-14.142A19.869 19.869 0 0 0 20 .518 19.869 19.869 0 0 0 5.858 6.375 19.869 19.869 0 0 0 0 20.517C0 25.86 2.08 30.882 5.858 34.66A19.869 19.869 0 0 0 20 40.517c5.342 0 10.364-2.08 14.142-5.858z"/></g></g></svg>