<svg xmlns="http://www.w3.org/2000/svg" width="40" height="41" viewBox="0 0 40 41"><g><g><g><path fill="#c4c4c4" d="M20 .518c11.046 0 20 8.954 20 20 0 11.045-8.954 20-20 20s-20-8.955-20-20c0-11.046 8.954-20 20-20z"/></g><g><path fill="#fff" d="M24.812 9.915c1.03.048 1.83.2 2.592.496a5.207 5.207 0 0 1 1.888 1.23c.562.56.942 1.143 1.231 1.89.295.761.448 1.56.496 2.589.052 1.146.064 1.526.064 4.398 0 2.87-.012 3.25-.064 4.398-.048 1.029-.2 1.827-.495 2.588-.291.748-.67 1.33-1.232 1.89a5.19 5.19 0 0 1-1.888 1.23c-.76.296-1.56.449-2.59.496-1.146.052-1.526.064-4.397.064-2.872 0-3.252-.012-4.398-.064-1.03-.047-1.828-.2-2.59-.496a5.198 5.198 0 0 1-1.888-1.23 5.22 5.22 0 0 1-1.23-1.89c-.296-.76-.45-1.56-.497-2.59-.051-1.145-.063-1.525-.063-4.396 0-2.847.012-3.231.063-4.399.047-1.03.2-1.828.496-2.588.29-.747.67-1.33 1.232-1.89.56-.561 1.142-.94 1.889-1.23.76-.295 1.559-.448 2.589-.496 1.069-.048 1.483-.062 3.856-.062l.54-.001c2.87 0 3.25.012 4.396.063zm9.33 24.744A19.869 19.869 0 0 0 40 20.517c0-5.342-2.08-10.364-5.858-14.142A19.869 19.869 0 0 0 20 .518 19.869 19.869 0 0 0 5.858 6.375 19.869 19.869 0 0 0 0 20.517C0 25.86 2.08 30.882 5.858 34.66A19.869 19.869 0 0 0 20 40.517c5.342 0 10.364-2.08 14.142-5.858z"/></g><g><path fill="#fff" d="M27.391 14.823c0 .706-.574 1.28-1.28 1.28a1.279 1.279 0 1 1-.003-2.559h.003c.706 0 1.28.573 1.28 1.279zm-1.497 5.693a5.483 5.483 0 0 1-5.476 5.477 5.484 5.484 0 0 1-5.478-5.477 5.484 5.484 0 0 1 5.478-5.477 5.483 5.483 0 0 1 5.476 5.477zm-1.166 8.678c1.043-.047 1.607-.22 1.981-.367a3.314 3.314 0 0 0 1.226-.798c.374-.373.605-.729.798-1.225.146-.376.32-.94.367-1.98.052-1.123.062-1.46.062-4.31 0-2.848-.01-3.185-.062-4.308-.047-1.04-.221-1.604-.367-1.98A3.32 3.32 0 0 0 27.935 13a3.305 3.305 0 0 0-1.226-.798c-.377-.146-.942-.32-1.98-.367-1.108-.05-1.442-.061-4.311-.061H19.733c-.085 0-.181 0-.272-.003-1.988.002-2.362.015-3.353.06-1.044.048-1.607.222-1.981.368a3.32 3.32 0 0 0-1.227.798 3.307 3.307 0 0 0-.798 1.227c-.146.376-.32.942-.367 1.98-.05 1.107-.061 1.441-.061 4.309 0 2.87.01 3.204.06 4.31.048 1.04.222 1.605.368 1.98.195.5.426.856.798 1.227.374.373.73.604 1.227.798.377.146.942.32 1.98.367 1.14.052 1.48.063 4.311.063 2.83 0 3.17-.01 4.31-.063z"/></g><g><path fill="#fff" d="M23.973 20.517a3.556 3.556 0 1 1-3.555-3.555 3.556 3.556 0 0 1 3.555 3.555z"/></g></g></g></svg>