<svg xmlns="http://www.w3.org/2000/svg" width="324" height="55" viewBox="0 0 324 55"><g><g><path fill="#e8277f" d="M34.785 49.591c-2.342.84-4.864 1.354-7.499 1.354-13.059 0-23.666-10.625-23.666-23.683 0-13.04 10.607-23.65 23.666-23.65 2.635 0 5.157.514 7.499 1.354a31.818 31.818 0 0 1 3.055-2.762C34.6.814 31.055-.025 27.286-.025 12.252-.025 0 12.211 0 27.262c0 15.07 12.252 27.322 27.286 27.322 3.769 0 7.315-.82 10.554-2.231a31.184 31.184 0 0 1-3.055-2.762z"/></g><g><path fill="#061e50" d="M42.87 44.984c-5.123-4.226-8.489-10.554-8.489-17.722 0-7.152 3.366-13.463 8.489-17.706 5.118 4.243 8.45 10.554 8.45 17.706 0 7.168-3.332 13.496-8.45 17.722zm2.962-37.53c-.95-.843-1.904-1.681-2.982-2.395-1.06.714-2.028 1.552-2.982 2.395-5.487 4.881-9.013 11.906-9.013 19.808 0 7.938 3.526 14.96 9.013 19.843.954.858 1.921 1.682 2.982 2.396 1.078-.714 2.031-1.538 2.982-2.396 5.507-4.883 9.033-11.905 9.033-19.843 0-7.902-3.526-14.927-9.033-19.808z"/></g><g><path fill="#061e50" d="M95.176 26.797c0 3.476-2.47 6.328-6.037 6.328-3.473 0-6.07-2.852-6.07-6.401v-.073c0-3.437 2.45-6.348 6.017-6.348 3.456 0 6.09 2.911 6.09 6.42v.074zm-14.63 0c0 4.646 3.6 8.523 8.54 8.523 4.954 0 8.613-3.952 8.613-8.596v-.073c0-4.627-3.62-8.506-8.56-8.506-4.956 0-8.593 3.935-8.593 8.579z"/></g><g><path fill="#061e50" d="M121.218 18.495h2.452v4.313c1.207-2.742 3.602-4.717 6.728-4.607v2.635h-.22c-3.58 0-6.508 2.596-6.508 7.535v6.545h-2.452z"/></g><g><path fill="#061e50" d="M154.067 30.564v-9.911h-2.288v-2.158h2.288v-4.96h2.45v4.96h5.212v2.158h-5.213v9.62c0 1.975 1.098 2.705 2.764 2.705.839 0 1.535-.146 2.376-.547v2.085c-.84.474-1.774.694-2.945.694-2.632 0-4.644-1.28-4.644-4.646z"/></g><g><path fill="#061e50" d="M198.306 26.797c0 3.476-2.486 6.328-6.052 6.328-3.476 0-6.071-2.852-6.071-6.401v-.073c0-3.437 2.432-6.348 5.998-6.348 3.456 0 6.125 2.911 6.125 6.42zm-14.648 0c0 4.646 3.603 8.523 8.523 8.523 4.973 0 8.652-3.952 8.652-8.596v-.073c0-4.627-3.659-8.506-8.579-8.506-4.957 0-8.596 3.935-8.596 8.579v.073z"/></g><g><path fill="#061e50" d="M224.736 12.678h16.092v2.268h-13.57v7.628h12.145v2.283H227.26v7.794h13.733v2.265h-16.256z"/></g><g><path fill="#061e50" d="M272.123 26.14l-9.273-13.462h3.072l7.518 11.12 7.55-11.12h2.928L274.645 26.1v8.816h-2.522z"/></g><g><path fill="#061e50" d="M307.017 12.678h16.114v2.268H309.54v7.628h12.164v2.283H309.54v7.794h13.736v2.265h-16.259z"/></g></g></svg>