<svg xmlns="http://www.w3.org/2000/svg" width="40" height="41" viewBox="0 0 40 41"><g><g><path fill="#fff" d="M12.092 18.37c.39.142.63.209.757.209.057 0 .091-.014.103-.042.03-.068-.075-.225-.328-.493-1.04-1.063-1.372-2.665-.867-4.18l.238-.678.924.918c1.89 1.852 4.13 2.954 6.658 3.277l.7.085-.042-.693c-.126-1.793.97-3.428 2.728-4.068.34-.12.825-.188 1.328-.188.414 0 .812.047 1.12.133.27.081.792.354 1.19.62l.684.467.756-.24c.402-.122.972-.335 1.23-.48.182-.098.361-.168.426-.168.015 0 .023.004.023.012 0 .238-.516 1.058-.952 1.511-.253.275-.353.428-.323.497.013.03.05.044.112.044.15 0 .452-.084.981-.273.355-.118.528-.176.607-.176.024 0 .039.006.046.017.016.028-.014.09-.065.188-.088.147-.526.643-.98 1.087-.78.773-.826.858-.826 1.512 0 .984-.47 3.083-.951 4.237-.884 2.154-2.756 4.356-4.658 5.48-1.676.988-3.752 1.533-5.844 1.533-1.16 0-2.282-.165-3.334-.488-.984-.308-2.7-1.098-2.7-1.243 0-.046.547-.1 1.148-.114a7.925 7.925 0 0 0 3.75-1.044l.754-.452-.866-.296c-1.237-.426-2.337-1.4-2.617-2.317-.03-.108-.048-.183-.012-.23.056-.074.237-.08.74-.08l.811-.015-.686-.325c-.82-.414-1.555-1.107-1.917-1.808-.26-.5-.604-1.79-.503-1.892.005-.007.018-.01.04-.01.082 0 .284.054.617.165zm22.05 16.29A19.869 19.869 0 0 0 40 20.516c0-5.342-2.08-10.364-5.858-14.142A19.869 19.869 0 0 0 20 .518 19.869 19.869 0 0 0 5.858 6.375 19.869 19.869 0 0 0 0 20.517C0 25.86 2.08 30.882 5.858 34.66A19.869 19.869 0 0 0 20 40.517c5.342 0 10.364-2.08 14.142-5.858z"/></g></g></svg>