<svg xmlns="http://www.w3.org/2000/svg" width="40" height="41" viewBox="0 0 40 41"><g><g><g><path fill="#c4c4c4" d="M20 .518c11.046 0 20 8.954 20 20 0 11.045-8.954 20-20 20s-20-8.955-20-20c0-11.046 8.954-20 20-20z"/></g><g><path fill="#fff" d="M28.335 13.642a2.71 2.71 0 0 1 1.886 1.937c.44 1.689.446 5.237.446 5.272 0 .036-.005 3.584-.446 5.273a2.71 2.71 0 0 1-1.886 1.936c-1.644.453-8.268.458-8.335.458-.067 0-6.69-.005-8.334-.458a2.707 2.707 0 0 1-1.887-1.936c-.44-1.69-.445-5.237-.445-5.273 0-.035.005-3.583.445-5.272a2.707 2.707 0 0 1 1.887-1.937c1.644-.452 8.267-.457 8.334-.457.067 0 6.69.005 8.335.457zm5.807 21.017A19.869 19.869 0 0 0 40 20.517c0-5.342-2.08-10.364-5.858-14.142A19.869 19.869 0 0 0 20 .518 19.869 19.869 0 0 0 5.858 6.375 19.869 19.869 0 0 0 0 20.517C0 25.86 2.08 30.882 5.858 34.66A19.869 19.869 0 0 0 20 40.517c5.342 0 10.364-2.08 14.142-5.858z"/></g><g><path fill="#fff" d="M18 17.85l5.333 3.334L18 24.517z"/></g></g></g></svg>